<svg width="1000" height="300" viewBox="0 0 1000 300" fill="none" xmlns="http://www.w3.org/2000/svg">
<title>Media Auto Hash Rename</title>
<path d="M354.32 128L366.608 55.616H385.232L399.728 94.208L414.128 55.616H432.752L445.04 128H426.32L420.08 86.336L402.992 128H395.504L379.28 86.336L373.04 128H354.32ZM483.074 96.224C482.498 93.792 481.314 91.84 479.522 90.368C477.73 88.896 475.554 88.16 472.994 88.16C470.306 88.16 468.098 88.864 466.37 90.272C464.706 91.68 463.65 93.664 463.202 96.224H483.074ZM462.722 106.304C462.722 113.792 466.242 117.536 473.282 117.536C477.058 117.536 479.906 116 481.826 112.928H498.626C495.234 124.192 486.754 129.824 473.186 129.824C469.026 129.824 465.218 129.216 461.762 128C458.306 126.72 455.33 124.928 452.834 122.624C450.402 120.32 448.514 117.568 447.17 114.368C445.826 111.168 445.154 107.584 445.154 103.616C445.154 99.52 445.794 95.84 447.074 92.576C448.354 89.248 450.178 86.432 452.546 84.128C454.914 81.824 457.762 80.064 461.09 78.848C464.482 77.568 468.29 76.928 472.514 76.928C476.674 76.928 480.418 77.568 483.746 78.848C487.074 80.064 489.89 81.856 492.194 84.224C494.498 86.592 496.258 89.504 497.474 92.96C498.69 96.352 499.298 100.192 499.298 104.48V106.304H462.722ZM519.731 103.232C519.731 104.832 520.019 106.336 520.595 107.744C521.171 109.088 521.939 110.272 522.899 111.296C523.923 112.32 525.107 113.12 526.451 113.696C527.859 114.272 529.363 114.56 530.963 114.56C532.499 114.56 533.939 114.272 535.283 113.696C536.691 113.12 537.875 112.32 538.835 111.296C539.859 110.272 540.659 109.088 541.235 107.744C541.875 106.4 542.195 104.96 542.195 103.424C542.195 101.888 541.875 100.448 541.235 99.104C540.659 97.696 539.859 96.48 538.835 95.456C537.875 94.432 536.691 93.632 535.283 93.056C533.939 92.48 532.499 92.192 530.963 92.192C529.427 92.192 527.955 92.48 526.547 93.056C525.203 93.632 524.019 94.432 522.995 95.456C522.035 96.48 521.235 97.664 520.595 99.008C520.019 100.288 519.731 101.696 519.731 103.232ZM541.619 48.32H559.091V128H541.619V122.528C537.907 127.2 532.883 129.536 526.547 129.536C522.963 129.536 519.667 128.864 516.659 127.52C513.651 126.176 511.027 124.32 508.787 121.952C506.547 119.584 504.787 116.8 503.507 113.6C502.291 110.4 501.683 106.944 501.683 103.232C501.683 99.712 502.259 96.384 503.411 93.248C504.627 90.048 506.323 87.264 508.499 84.896C510.675 82.528 513.267 80.672 516.275 79.328C519.347 77.92 522.707 77.216 526.355 77.216C532.499 77.216 537.587 79.36 541.619 83.648V48.32ZM582.664 78.752V128H565.288V78.752H582.664ZM564.136 59.84C564.136 58.496 564.392 57.248 564.904 56.096C565.416 54.88 566.12 53.824 567.016 52.928C567.912 52.032 568.936 51.328 570.088 50.816C571.304 50.304 572.584 50.048 573.928 50.048C575.272 50.048 576.52 50.304 577.672 50.816C578.888 51.328 579.944 52.032 580.84 52.928C581.736 53.824 582.44 54.88 582.952 56.096C583.464 57.248 583.72 58.496 583.72 59.84C583.72 61.184 583.464 62.464 582.952 63.68C582.44 64.832 581.736 65.856 580.84 66.752C579.944 67.648 578.888 68.352 577.672 68.864C576.52 69.376 575.272 69.632 573.928 69.632C572.584 69.632 571.304 69.376 570.088 68.864C568.936 68.352 567.912 67.648 567.016 66.752C566.12 65.856 565.416 64.832 564.904 63.68C564.392 62.464 564.136 61.184 564.136 59.84ZM605.038 103.232C605.038 104.832 605.326 106.336 605.902 107.744C606.478 109.088 607.246 110.272 608.206 111.296C609.23 112.32 610.414 113.12 611.758 113.696C613.166 114.272 614.67 114.56 616.27 114.56C617.806 114.56 619.246 114.272 620.59 113.696C621.998 113.12 623.182 112.32 624.142 111.296C625.166 110.272 625.966 109.088 626.542 107.744C627.182 106.4 627.502 104.96 627.502 103.424C627.502 101.888 627.182 100.448 626.542 99.104C625.966 97.696 625.166 96.48 624.142 95.456C623.182 94.432 621.998 93.632 620.59 93.056C619.246 92.48 617.806 92.192 616.27 92.192C614.67 92.192 613.166 92.48 611.758 93.056C610.414 93.632 609.23 94.432 608.206 95.456C607.246 96.48 606.478 97.664 605.902 99.008C605.326 100.288 605.038 101.696 605.038 103.232ZM626.926 78.752H644.398V128H626.926V122.528C623.214 127.2 618.19 129.536 611.854 129.536C608.27 129.536 604.974 128.896 601.966 127.616C598.958 126.272 596.334 124.416 594.094 122.048C591.854 119.68 590.094 116.896 588.814 113.696C587.598 110.496 586.99 107.008 586.99 103.232C586.99 99.712 587.598 96.384 588.814 93.248C590.03 90.048 591.726 87.264 593.902 84.896C596.078 82.528 598.67 80.672 601.678 79.328C604.686 77.92 608.014 77.216 611.662 77.216C617.806 77.216 622.894 79.36 626.926 83.648V78.752ZM718.585 101.12L710.137 77.024L701.689 101.12H718.585ZM723.577 115.424H696.697L692.377 128H672.313L699.865 55.616H720.409L747.961 128H727.897L723.577 115.424ZM766.404 78.752V106.496C766.404 112.576 769.348 115.616 775.236 115.616C781.124 115.616 784.068 112.576 784.068 106.496V78.752H801.444V109.856C801.444 116.512 799.236 121.504 794.82 124.832C790.468 128.16 783.94 129.824 775.236 129.824C766.532 129.824 759.972 128.16 755.556 124.832C751.204 121.504 749.028 116.512 749.028 109.856V78.752H766.404ZM827.011 93.248V128H809.635V93.248H803.875V78.752H809.635V63.968H827.011V78.752H836.899V93.248H827.011ZM855.063 103.136C855.063 104.8 855.351 106.336 855.927 107.744C856.567 109.088 857.367 110.272 858.327 111.296C859.351 112.32 860.535 113.12 861.879 113.696C863.287 114.272 864.759 114.56 866.295 114.56C867.831 114.56 869.271 114.272 870.615 113.696C872.023 113.12 873.207 112.32 874.167 111.296C875.191 110.272 875.991 109.088 876.567 107.744C877.207 106.336 877.527 104.832 877.527 103.232C877.527 101.696 877.207 100.256 876.567 98.912C875.991 97.504 875.191 96.288 874.167 95.264C873.207 94.24 872.023 93.44 870.615 92.864C869.271 92.288 867.831 92 866.295 92C864.759 92 863.287 92.288 861.879 92.864C860.535 93.44 859.351 94.24 858.327 95.264C857.367 96.288 856.567 97.472 855.927 98.816C855.351 100.16 855.063 101.6 855.063 103.136ZM836.727 102.944C836.727 99.296 837.463 95.904 838.935 92.768C840.407 89.568 842.455 86.816 845.079 84.512C847.703 82.144 850.807 80.288 854.391 78.944C858.039 77.6 862.007 76.928 866.295 76.928C870.519 76.928 874.423 77.6 878.007 78.944C881.655 80.224 884.791 82.048 887.415 84.416C890.103 86.72 892.183 89.504 893.655 92.768C895.127 95.968 895.863 99.52 895.863 103.424C895.863 107.328 895.095 110.912 893.559 114.176C892.087 117.376 890.039 120.16 887.415 122.528C884.791 124.832 881.623 126.624 877.911 127.904C874.263 129.184 870.295 129.824 866.007 129.824C861.783 129.824 857.879 129.184 854.295 127.904C850.711 126.624 847.607 124.8 844.983 122.432C842.423 120.064 840.407 117.248 838.935 113.984C837.463 110.656 836.727 106.976 836.727 102.944ZM376.4 199.552H403.568V171.616H422.384V244H403.568V214.144H376.4V244H357.584V171.616H376.4V199.552ZM446.421 219.232C446.421 220.832 446.709 222.336 447.285 223.744C447.861 225.088 448.629 226.272 449.589 227.296C450.613 228.32 451.797 229.12 453.141 229.696C454.549 230.272 456.053 230.56 457.653 230.56C459.189 230.56 460.629 230.272 461.973 229.696C463.381 229.12 464.565 228.32 465.525 227.296C466.549 226.272 467.349 225.088 467.925 223.744C468.565 222.4 468.885 220.96 468.885 219.424C468.885 217.888 468.565 216.448 467.925 215.104C467.349 213.696 466.549 212.48 465.525 211.456C464.565 210.432 463.381 209.632 461.973 209.056C460.629 208.48 459.189 208.192 457.653 208.192C456.053 208.192 454.549 208.48 453.141 209.056C451.797 209.632 450.613 210.432 449.589 211.456C448.629 212.48 447.861 213.664 447.285 215.008C446.709 216.288 446.421 217.696 446.421 219.232ZM468.309 194.752H485.781V244H468.309V238.528C464.597 243.2 459.573 245.536 453.237 245.536C449.653 245.536 446.357 244.896 443.349 243.616C440.341 242.272 437.717 240.416 435.477 238.048C433.237 235.68 431.477 232.896 430.197 229.696C428.981 226.496 428.373 223.008 428.373 219.232C428.373 215.712 428.981 212.384 430.197 209.248C431.413 206.048 433.109 203.264 435.285 200.896C437.461 198.528 440.053 196.672 443.061 195.328C446.069 193.92 449.397 193.216 453.045 193.216C459.189 193.216 464.277 195.36 468.309 199.648V194.752ZM524.618 207.424C521.418 205.76 518.282 204.928 515.21 204.928C513.61 204.928 512.298 205.248 511.274 205.888C510.314 206.528 509.834 207.392 509.834 208.48C509.834 209.056 509.898 209.536 510.026 209.92C510.218 210.24 510.57 210.56 511.082 210.88C511.658 211.2 512.458 211.488 513.482 211.744C514.57 212 515.978 212.32 517.706 212.704C522.506 213.664 526.09 215.392 528.458 217.888C530.826 220.32 532.01 223.456 532.01 227.296C532.01 230.176 531.434 232.768 530.282 235.072C529.13 237.376 527.53 239.328 525.482 240.928C523.434 242.464 520.97 243.648 518.09 244.48C515.21 245.376 512.042 245.824 508.586 245.824C501.93 245.824 495.37 243.936 488.906 240.16L495.242 227.872C500.106 231.2 504.714 232.864 509.066 232.864C510.666 232.864 511.978 232.512 513.002 231.808C514.026 231.104 514.538 230.208 514.538 229.12C514.538 228.48 514.442 227.968 514.25 227.584C514.122 227.136 513.802 226.752 513.29 226.432C512.778 226.048 512.01 225.728 510.986 225.472C510.026 225.152 508.746 224.832 507.146 224.512C501.77 223.424 497.994 221.824 495.818 219.712C493.706 217.536 492.65 214.56 492.65 210.784C492.65 208.032 493.162 205.568 494.186 203.392C495.21 201.152 496.682 199.264 498.602 197.728C500.522 196.192 502.826 195.008 505.514 194.176C508.266 193.344 511.306 192.928 514.634 192.928C520.074 192.928 525.354 193.984 530.474 196.096L524.618 207.424ZM535.194 164.32H552.57V200.992C554.938 198.112 557.338 196.192 559.77 195.232C562.202 194.208 565.05 193.696 568.314 193.696C574.522 193.696 579.194 195.424 582.33 198.88C585.53 202.272 587.13 206.88 587.13 212.704V244H569.754V219.136C569.754 216.64 569.562 214.624 569.178 213.088C568.794 211.552 568.154 210.368 567.258 209.536C565.722 208.192 563.866 207.52 561.69 207.52C558.746 207.52 556.474 208.416 554.874 210.208C553.338 211.936 552.57 214.432 552.57 217.696V244H535.194V164.32ZM640.762 203.968H644.314C648.026 203.968 650.874 203.2 652.858 201.664C654.842 200.128 655.834 197.92 655.834 195.04C655.834 192.16 654.842 189.952 652.858 188.416C650.874 186.88 648.026 186.112 644.314 186.112H640.762V203.968ZM682.138 244H658.714L640.762 216.16V244H621.946V171.616H651.226C655.258 171.616 658.778 172.224 661.786 173.44C664.794 174.592 667.258 176.192 669.178 178.24C671.162 180.288 672.634 182.656 673.594 185.344C674.618 188.032 675.13 190.912 675.13 193.984C675.13 199.488 673.786 203.968 671.098 207.424C668.474 210.816 664.57 213.12 659.386 214.336L682.138 244ZM717.718 212.224C717.142 209.792 715.958 207.84 714.166 206.368C712.374 204.896 710.198 204.16 707.638 204.16C704.95 204.16 702.742 204.864 701.014 206.272C699.35 207.68 698.294 209.664 697.846 212.224H717.718ZM697.366 222.304C697.366 229.792 700.886 233.536 707.926 233.536C711.702 233.536 714.55 232 716.47 228.928H733.27C729.878 240.192 721.398 245.824 707.83 245.824C703.67 245.824 699.862 245.216 696.406 244C692.95 242.72 689.974 240.928 687.478 238.624C685.046 236.32 683.158 233.568 681.814 230.368C680.47 227.168 679.798 223.584 679.798 219.616C679.798 215.52 680.438 211.84 681.718 208.576C682.998 205.248 684.822 202.432 687.19 200.128C689.558 197.824 692.406 196.064 695.734 194.848C699.126 193.568 702.934 192.928 707.158 192.928C711.318 192.928 715.062 193.568 718.39 194.848C721.718 196.064 724.534 197.856 726.838 200.224C729.142 202.592 730.902 205.504 732.118 208.96C733.334 212.352 733.942 216.192 733.942 220.48V222.304H697.366ZM738.246 194.752H755.622V200.992C757.99 198.112 760.39 196.192 762.822 195.232C765.254 194.208 768.102 193.696 771.366 193.696C774.822 193.696 777.766 194.272 780.198 195.424C782.694 196.512 784.806 198.08 786.534 200.128C787.942 201.792 788.902 203.648 789.414 205.696C789.926 207.744 790.182 210.08 790.182 212.704V244H772.806V219.136C772.806 216.704 772.614 214.752 772.23 213.28C771.91 211.744 771.302 210.528 770.406 209.632C769.638 208.864 768.774 208.32 767.814 208C766.854 207.68 765.83 207.52 764.742 207.52C761.798 207.52 759.526 208.416 757.926 210.208C756.39 211.936 755.622 214.432 755.622 217.696V244H738.246V194.752ZM812.497 219.232C812.497 220.832 812.785 222.336 813.361 223.744C813.937 225.088 814.705 226.272 815.665 227.296C816.689 228.32 817.873 229.12 819.217 229.696C820.625 230.272 822.129 230.56 823.729 230.56C825.265 230.56 826.705 230.272 828.049 229.696C829.457 229.12 830.641 228.32 831.601 227.296C832.625 226.272 833.425 225.088 834.001 223.744C834.641 222.4 834.961 220.96 834.961 219.424C834.961 217.888 834.641 216.448 834.001 215.104C833.425 213.696 832.625 212.48 831.601 211.456C830.641 210.432 829.457 209.632 828.049 209.056C826.705 208.48 825.265 208.192 823.729 208.192C822.129 208.192 820.625 208.48 819.217 209.056C817.873 209.632 816.689 210.432 815.665 211.456C814.705 212.48 813.937 213.664 813.361 215.008C812.785 216.288 812.497 217.696 812.497 219.232ZM834.385 194.752H851.857V244H834.385V238.528C830.673 243.2 825.649 245.536 819.313 245.536C815.729 245.536 812.433 244.896 809.425 243.616C806.417 242.272 803.793 240.416 801.553 238.048C799.313 235.68 797.553 232.896 796.273 229.696C795.057 226.496 794.449 223.008 794.449 219.232C794.449 215.712 795.057 212.384 796.273 209.248C797.489 206.048 799.185 203.264 801.361 200.896C803.537 198.528 806.129 196.672 809.137 195.328C812.145 193.92 815.473 193.216 819.121 193.216C825.265 193.216 830.353 195.36 834.385 199.648V194.752ZM858.054 194.752H875.43V200.8C880.166 196.256 885.478 193.984 891.366 193.984C898.662 193.984 904.23 197.056 908.07 203.2C911.974 196.992 917.542 193.888 924.774 193.888C927.078 193.888 929.254 194.24 931.302 194.944C933.35 195.584 935.11 196.64 936.582 198.112C938.054 199.52 939.206 201.376 940.038 203.68C940.934 205.984 941.382 208.768 941.382 212.032V244H924.006V219.712C924.006 217.216 923.814 215.168 923.43 213.568C923.11 211.968 922.598 210.72 921.894 209.824C921.254 208.928 920.486 208.32 919.59 208C918.694 207.68 917.734 207.52 916.71 207.52C911.142 207.52 908.358 211.584 908.358 219.712V244H890.982V219.712C890.982 217.216 890.822 215.168 890.502 213.568C890.182 211.904 889.702 210.592 889.062 209.632C888.486 208.672 887.718 208.032 886.758 207.712C885.798 207.328 884.678 207.136 883.398 207.136C882.31 207.136 881.286 207.296 880.326 207.616C879.366 207.936 878.502 208.576 877.734 209.536C877.03 210.432 876.454 211.712 876.006 213.376C875.622 214.976 875.43 217.088 875.43 219.712V244H858.054V194.752ZM983.676 212.224C983.1 209.792 981.916 207.84 980.124 206.368C978.332 204.896 976.156 204.16 973.596 204.16C970.908 204.16 968.7 204.864 966.972 206.272C965.308 207.68 964.252 209.664 963.804 212.224H983.676ZM963.324 222.304C963.324 229.792 966.844 233.536 973.884 233.536C977.66 233.536 980.508 232 982.428 228.928H999.228C995.836 240.192 987.356 245.824 973.788 245.824C969.628 245.824 965.82 245.216 962.364 244C958.908 242.72 955.932 240.928 953.436 238.624C951.004 236.32 949.116 233.568 947.772 230.368C946.428 227.168 945.756 223.584 945.756 219.616C945.756 215.52 946.396 211.84 947.676 208.576C948.956 205.248 950.78 202.432 953.148 200.128C955.516 197.824 958.364 196.064 961.692 194.848C965.084 193.568 968.892 192.928 973.116 192.928C977.276 192.928 981.02 193.568 984.348 194.848C987.676 196.064 990.492 197.856 992.796 200.224C995.1 202.592 996.86 205.504 998.076 208.96C999.292 212.352 999.9 216.192 999.9 220.48V222.304H963.324Z" fill="#8000FF"/>
<path d="M126.125 285.413C125.317 285.271 124.488 285.289 123.687 285.467C122.886 285.646 122.127 285.98 121.455 286.451C120.783 286.922 120.21 287.521 119.77 288.214C119.329 288.906 119.029 289.679 118.887 290.488C118.746 291.296 118.764 292.124 118.942 292.926C119.121 293.727 119.455 294.485 119.926 295.157C120.397 295.829 120.996 296.402 121.689 296.843C122.381 297.283 123.154 297.583 123.962 297.725C125.595 298.012 127.275 297.638 128.632 296.686C129.99 295.735 130.913 294.283 131.2 292.65C131.487 291.017 131.113 289.337 130.161 287.98C129.21 286.623 127.758 285.699 126.125 285.413ZM150 287.5C148.342 287.5 146.753 288.158 145.581 289.331C144.408 290.503 143.75 292.092 143.75 293.75C143.75 295.408 144.408 296.997 145.581 298.169C146.753 299.342 148.342 300 150 300C151.658 300 153.247 299.342 154.419 298.169C155.592 296.997 156.25 295.408 156.25 293.75C156.25 292.092 155.592 290.503 154.419 289.331C153.247 288.158 151.658 287.5 150 287.5ZM197.025 279.212C196.211 279.458 195.455 279.868 194.805 280.415C194.154 280.963 193.622 281.638 193.242 282.399C192.861 283.159 192.64 283.99 192.591 284.839C192.542 285.688 192.668 286.538 192.959 287.337C193.25 288.136 193.702 288.867 194.285 289.486C194.869 290.104 195.573 290.597 196.354 290.934C197.135 291.271 197.976 291.445 198.827 291.446C199.677 291.447 200.519 291.273 201.3 290.938C202.767 290.307 203.936 289.139 204.569 287.673C205.202 286.207 205.25 284.555 204.703 283.055C204.156 281.555 203.056 280.321 201.628 279.607C200.2 278.892 198.553 278.751 197.025 279.212ZM52.8125 256.1C52.2351 256.721 51.79 257.452 51.5043 258.25C51.2185 259.048 51.0981 259.896 51.1503 260.742C51.2025 261.588 51.4263 262.415 51.808 263.172C52.1897 263.928 52.7214 264.6 53.3707 265.145C54.02 265.69 54.7734 266.097 55.585 266.341C56.3966 266.586 57.2494 266.663 58.0917 266.567C58.934 266.472 59.748 266.206 60.4844 265.786C61.2207 265.367 61.864 264.801 62.375 264.125C63.341 262.847 63.7791 261.246 63.5988 259.654C63.4185 258.062 62.6336 256.6 61.4062 255.57C60.1788 254.54 58.6027 254.02 57.0034 254.119C55.4042 254.218 53.9039 254.927 52.8125 256.1ZM35.1 53.5875C34.5365 54.2104 34.1044 54.9404 33.8293 55.734C33.5543 56.5276 33.4421 57.3686 33.4994 58.2065C33.5566 59.0445 33.7822 59.8623 34.1626 60.6112C34.543 61.36 35.0704 62.0245 35.7134 62.5649C36.3564 63.1053 37.1017 63.5106 37.9048 63.7565C38.7079 64.0025 39.5523 64.084 40.3876 63.9963C41.223 63.9085 42.032 63.6534 42.7665 63.2459C43.501 62.8385 44.1458 62.2872 44.6625 61.625C45.6579 60.3492 46.1197 58.737 45.9506 57.1276C45.7816 55.5183 44.995 54.0372 43.7562 52.9961C42.5175 51.9549 40.9232 51.4347 39.3088 51.545C37.6943 51.6553 36.1856 52.3875 35.1 53.5875ZM218.75 269.075C218.033 269.482 217.405 270.027 216.9 270.679C216.395 271.33 216.023 272.075 215.807 272.871C215.591 273.666 215.535 274.496 215.641 275.314C215.747 276.131 216.014 276.919 216.426 277.633C216.839 278.347 217.388 278.972 218.043 279.473C218.697 279.974 219.445 280.34 220.242 280.551C221.038 280.761 221.869 280.812 222.686 280.701C223.502 280.589 224.289 280.317 225 279.9C226.424 279.065 227.46 277.701 227.881 276.106C228.303 274.51 228.077 272.812 227.252 271.383C226.426 269.954 225.069 268.909 223.477 268.477C221.884 268.044 220.185 268.259 218.75 269.075ZM102.975 279.212C102.203 278.931 101.384 278.804 100.564 278.839C99.743 278.874 98.9375 279.071 98.1929 279.417C96.689 280.117 95.5248 281.386 94.9563 282.944C94.3877 284.502 94.4614 286.222 95.1611 287.726C95.8609 289.23 97.1294 290.394 98.6875 290.962C100.246 291.531 101.966 291.457 103.47 290.758C104.973 290.058 106.138 288.789 106.706 287.231C107.275 285.673 107.201 283.953 106.501 282.449C105.802 280.945 104.533 279.781 102.975 279.212ZM81.25 269.075C79.8129 268.246 78.1053 268.022 76.5031 268.452C74.9008 268.883 73.535 269.932 72.7062 271.369C71.8774 272.806 71.6535 274.513 72.0836 276.116C72.5138 277.718 73.5629 279.084 75 279.913C75.7116 280.323 76.4971 280.589 77.3115 280.696C78.126 280.803 78.9536 280.748 79.7469 280.535C80.5403 280.322 81.2839 279.955 81.9354 279.455C82.5868 278.954 83.1334 278.33 83.5438 277.619C83.9541 276.907 84.2203 276.122 84.3272 275.307C84.434 274.493 84.3793 273.665 84.1664 272.872C83.9534 272.078 83.5862 271.335 83.0858 270.683C82.5854 270.032 81.9616 269.485 81.25 269.075ZM256.1 52.8125C255.424 53.3235 254.858 53.9668 254.439 54.7031C254.019 55.4395 253.753 56.2535 253.658 57.0958C253.562 57.9381 253.639 58.7909 253.884 59.6025C254.128 60.4141 254.535 61.1675 255.08 61.8168C255.625 62.4661 256.297 62.9978 257.053 63.3795C257.81 63.7612 258.637 63.985 259.483 64.0372C260.329 64.0894 261.177 63.969 261.975 63.6832C262.773 63.3975 263.504 62.9524 264.125 62.375C265.298 61.2836 266.007 59.7833 266.106 58.184C266.205 56.5848 265.685 55.0087 264.655 53.7813C263.625 52.5539 262.163 51.769 260.571 51.5887C258.979 51.4084 257.378 51.8465 256.1 52.8125ZM287.225 193.287C286.453 193.008 285.633 192.883 284.812 192.92C283.991 192.957 283.186 193.155 282.442 193.503C281.698 193.851 281.03 194.343 280.476 194.949C279.922 195.556 279.492 196.265 279.212 197.038C278.933 197.81 278.808 198.63 278.845 199.45C278.882 200.271 279.08 201.076 279.428 201.82C279.776 202.564 280.268 203.233 280.874 203.787C281.481 204.341 282.19 204.77 282.962 205.05C284.522 205.615 286.243 205.538 287.745 204.834C289.248 204.131 290.41 202.86 290.975 201.3C291.54 199.74 291.463 198.02 290.759 196.517C290.056 195.014 288.785 193.853 287.225 193.287ZM293.75 143.75C292.092 143.75 290.503 144.408 289.331 145.581C288.158 146.753 287.5 148.342 287.5 150C287.5 151.658 288.158 153.247 289.331 154.419C290.503 155.592 292.092 156.25 293.75 156.25C295.408 156.25 296.997 155.592 298.169 154.419C299.342 153.247 300 151.658 300 150C300 148.342 299.342 146.753 298.169 145.581C296.997 144.408 295.408 143.75 293.75 143.75ZM292.65 168.8C291.014 168.515 289.332 168.891 287.973 169.847C286.615 170.802 285.691 172.258 285.406 173.894C285.121 175.53 285.498 177.212 286.453 178.571C287.408 179.929 288.864 180.852 290.5 181.137C292.136 181.423 293.818 181.046 295.177 180.091C296.535 179.136 297.459 177.68 297.744 176.044C298.029 174.408 297.652 172.725 296.697 171.367C295.742 170.008 294.286 169.085 292.65 168.8ZM277.625 216.462C276.914 216.046 276.127 215.774 275.311 215.662C274.494 215.55 273.663 215.601 272.867 215.812C272.07 216.023 271.322 216.389 270.668 216.889C270.013 217.39 269.464 218.015 269.051 218.729C268.639 219.443 268.372 220.231 268.266 221.049C268.16 221.866 268.216 222.696 268.432 223.492C268.648 224.287 269.02 225.032 269.525 225.684C270.03 226.335 270.658 226.88 271.375 227.288C272.81 228.103 274.509 228.318 276.102 227.886C277.694 227.454 279.051 226.409 279.877 224.979C280.702 223.55 280.928 221.852 280.507 220.257C280.085 218.661 279.049 217.297 277.625 216.462ZM255.337 238.387C254.757 239.007 254.309 239.738 254.02 240.536C253.731 241.335 253.608 242.183 253.658 243.031C253.708 243.878 253.931 244.706 254.311 245.465C254.692 246.224 255.223 246.897 255.873 247.444C256.522 247.99 257.276 248.399 258.089 248.644C258.902 248.89 259.756 248.968 260.599 248.872C261.443 248.777 262.258 248.511 262.995 248.09C263.733 247.669 264.376 247.103 264.888 246.425C265.851 245.148 266.288 243.55 266.108 241.96C265.928 240.37 265.146 238.91 263.922 237.88C262.698 236.85 261.126 236.328 259.529 236.423C257.932 236.517 256.432 237.22 255.337 238.387ZM175 150C175 136.212 163.788 125 150 125C136.212 125 125 136.212 125 150C125 163.788 136.212 175 150 175C163.788 175 175 163.788 175 150ZM200 150C200 177.575 177.575 200 150 200C122.438 200 100 177.575 100 150C100 122.425 122.438 100 150 100C177.575 100 200 122.425 200 150ZM35.8625 237.613C35.2003 238.129 34.649 238.774 34.2416 239.508C33.8341 240.243 33.5789 241.052 33.4912 241.887C33.4035 242.723 33.485 243.567 33.731 244.37C33.9769 245.173 34.3822 245.919 34.9226 246.562C35.463 247.205 36.1275 247.732 36.8764 248.112C37.6252 248.493 38.443 248.718 39.281 248.776C40.1189 248.833 40.9599 248.721 41.7535 248.446C42.5471 248.171 43.2771 247.738 43.9 247.175C45.1 246.089 45.8322 244.581 45.9425 242.966C46.0528 241.352 45.5326 239.758 44.4915 238.519C43.4503 237.28 41.9692 236.493 40.3599 236.324C38.7505 236.155 37.1383 236.617 35.8625 237.613ZM237.5 150C237.5 101.762 198.25 62.5 150 62.5C101.75 62.5 62.5 101.762 62.5 150C62.5 198.238 101.75 237.5 150 237.5C198.25 237.5 237.5 198.238 237.5 150ZM250 150C250 205.137 205.137 250 150 250C94.8625 250 50 205.137 50 150C50 94.8625 94.8625 50 150 50C205.137 50 250 94.8625 250 150ZM238.387 255.337C237.118 256.405 236.324 257.933 236.181 259.586C236.038 261.238 236.558 262.88 237.625 264.15C238.693 265.42 240.221 266.213 241.873 266.356C243.526 266.499 245.168 265.98 246.438 264.913C247.066 264.384 247.585 263.737 247.963 263.008C248.342 262.279 248.573 261.482 248.644 260.664C248.715 259.846 248.624 259.022 248.376 258.238C248.128 257.455 247.729 256.729 247.2 256.1C246.671 255.471 246.024 254.953 245.295 254.574C244.566 254.196 243.77 253.964 242.952 253.894C242.133 253.823 241.309 253.914 240.526 254.162C239.743 254.409 239.016 254.809 238.387 255.337ZM173.875 285.413C173.027 285.508 172.208 285.777 171.468 286.201C170.728 286.626 170.083 287.197 169.572 287.881C169.061 288.564 168.696 289.345 168.498 290.174C168.3 291.004 168.274 291.866 168.422 292.706C168.57 293.546 168.889 294.347 169.358 295.06C169.827 295.773 170.437 296.381 171.15 296.849C171.864 297.317 172.665 297.634 173.506 297.78C174.346 297.927 175.208 297.899 176.038 297.7C177.585 297.328 178.932 296.381 179.804 295.05C180.677 293.72 181.009 292.107 180.733 290.54C180.457 288.973 179.594 287.57 178.32 286.617C177.046 285.664 175.456 285.234 173.875 285.413ZM126.125 14.5875C126.933 14.4455 127.706 14.1457 128.399 13.7051C129.091 13.2645 129.69 12.6919 130.161 12.0198C130.633 11.3478 130.967 10.5894 131.145 9.7882C131.323 8.98695 131.342 8.15845 131.2 7.35C131.058 6.54155 130.758 5.76898 130.318 5.07641C129.877 4.38384 129.304 3.78482 128.632 3.31357C127.96 2.84231 127.202 2.50804 126.401 2.32984C125.599 2.15164 124.771 2.13301 123.962 2.275C122.33 2.56177 120.878 3.48539 119.926 4.84268C118.974 6.19998 118.601 7.87976 118.887 9.5125C119.174 11.1452 120.098 12.5972 121.455 13.5489C122.812 14.5007 124.492 14.8743 126.125 14.5875ZM197.025 20.7875C197.798 21.0879 198.623 21.2311 199.453 21.2087C200.282 21.1863 201.098 20.9987 201.854 20.657C202.61 20.3153 203.29 19.8262 203.854 19.2185C204.419 18.6107 204.856 17.8965 205.141 17.1176C205.427 16.3387 205.553 15.5108 205.515 14.6822C205.476 13.8537 205.272 13.0412 204.916 12.2922C204.559 11.5433 204.057 10.8731 203.438 10.3206C202.82 9.76821 202.097 9.34474 201.312 9.075C199.768 8.54394 198.077 8.63967 196.603 9.34163C195.128 10.0436 193.988 11.2958 193.427 12.8293C192.865 14.3628 192.928 16.0553 193.601 17.5433C194.273 19.0313 195.503 20.1961 197.025 20.7875ZM150 12.5C151.658 12.5 153.247 11.8415 154.419 10.6694C155.592 9.49731 156.25 7.9076 156.25 6.25C156.25 4.5924 155.592 3.00269 154.419 1.83058C153.247 0.658481 151.658 0 150 0C148.342 0 146.753 0.658481 145.581 1.83058C144.408 3.00269 143.75 4.5924 143.75 6.25C143.75 7.9076 144.408 9.49731 145.581 10.6694C146.753 11.8415 148.342 12.5 150 12.5ZM173.875 14.5875C174.697 14.7655 175.546 14.7759 176.372 14.618C177.198 14.46 177.984 14.1371 178.682 13.6683C179.38 13.1996 179.976 12.5949 180.435 11.8902C180.894 11.1856 181.206 10.3956 181.353 9.5675C181.499 8.73943 181.477 7.89032 181.288 7.07102C181.098 6.25172 180.745 5.47908 180.25 4.79937C179.755 4.11965 179.128 3.54684 178.406 3.11523C177.684 2.68362 176.883 2.40209 176.05 2.2875C174.449 2.06727 172.825 2.47579 171.518 3.42733C170.212 4.37887 169.325 5.79945 169.044 7.3909C168.762 8.98235 169.108 10.6209 170.009 11.9628C170.91 13.3046 172.296 14.2453 173.875 14.5875ZM218.75 30.925C220.187 31.7538 221.895 31.9778 223.497 31.5476C225.099 31.1174 226.465 30.0684 227.294 28.6313C228.123 27.1941 228.346 25.4866 227.916 23.8843C227.486 22.2821 226.437 20.9163 225 20.0875C224.288 19.6771 223.503 19.4109 222.688 19.3041C221.874 19.1973 221.046 19.2519 220.253 19.4649C219.46 19.6779 218.716 20.0451 218.065 20.5455C217.413 21.0458 216.867 21.6697 216.456 22.3813C216.046 23.0929 215.78 23.8783 215.673 24.6928C215.566 25.5073 215.621 26.3348 215.834 27.1282C216.264 28.7304 217.313 30.0962 218.75 30.925ZM28.6375 72.7125C27.2004 71.8837 25.4928 71.6598 23.8906 72.0899C22.2883 72.5201 20.9226 73.5691 20.0938 75.0062C19.2649 76.4434 19.041 78.1509 19.4712 79.7532C19.9013 81.3554 20.9504 82.7212 22.3875 83.55C23.8246 84.3788 25.5322 84.6028 27.1344 84.1726C27.9278 83.9596 28.6714 83.5924 29.3229 83.092C29.9743 82.5916 30.5209 81.9678 30.9313 81.2562C31.3416 80.5446 31.6078 79.7592 31.7147 78.9447C31.8215 78.1302 31.7668 77.3027 31.5538 76.5093C31.3408 75.716 30.9737 74.9723 30.4733 74.3209C29.9729 73.6694 29.3491 73.1229 28.6375 72.7125ZM277.625 83.5375C278.372 83.1468 279.032 82.609 279.566 81.9566C280.099 81.3041 280.496 80.5504 280.73 79.7409C280.965 78.9313 281.034 78.0826 280.932 77.2458C280.831 76.409 280.561 75.6015 280.139 74.8717C279.717 74.1419 279.152 73.505 278.478 72.9993C277.803 72.4936 277.034 72.1295 276.215 71.9289C275.396 71.7284 274.545 71.6955 273.714 71.8323C272.882 71.9691 272.086 72.2728 271.375 72.725C270.015 73.5898 269.041 74.9468 268.657 76.5125C268.274 78.0783 268.51 79.7316 269.317 81.1273C270.124 82.5229 271.438 83.5528 272.987 84.002C274.535 84.4511 276.197 84.2847 277.625 83.5375ZM247.188 43.9C247.716 43.2705 248.115 42.543 248.363 41.7591C248.61 40.9752 248.701 40.1503 248.63 39.3314C248.558 38.5125 248.326 37.7157 247.947 36.9865C247.568 36.2572 247.048 35.6098 246.419 35.0812C245.789 34.5527 245.062 34.1533 244.278 33.9059C243.494 33.6584 242.669 33.5678 241.85 33.6392C241.031 33.7106 240.234 33.9426 239.505 34.3219C238.776 34.7012 238.129 35.2205 237.6 35.85C236.533 37.1214 236.014 38.7648 236.158 40.4186C236.302 42.0724 237.097 43.6013 238.369 44.6688C239.64 45.7362 241.284 46.255 242.937 46.1108C244.591 45.9666 246.12 45.1714 247.188 43.9ZM279.212 102.975C279.781 104.533 280.945 105.802 282.449 106.501C283.953 107.201 285.673 107.275 287.231 106.706C288.789 106.138 290.058 104.973 290.758 103.47C291.457 101.966 291.531 100.246 290.962 98.6875C290.394 97.1294 289.23 95.8609 287.726 95.1611C286.222 94.4614 284.502 94.3877 282.944 94.9563C281.386 95.5248 280.117 96.689 279.417 98.1929C278.718 99.6967 278.644 101.417 279.212 102.975ZM285.413 126.125C285.508 126.973 285.777 127.792 286.201 128.532C286.626 129.272 287.197 129.917 287.881 130.428C288.564 130.939 289.345 131.304 290.174 131.502C291.004 131.7 291.866 131.726 292.706 131.578C293.546 131.43 294.347 131.111 295.06 130.642C295.773 130.173 296.381 129.563 296.849 128.85C297.317 128.136 297.634 127.335 297.78 126.494C297.927 125.654 297.899 124.792 297.7 123.962C297.328 122.415 296.381 121.068 295.05 120.196C293.72 119.323 292.107 118.991 290.54 119.267C288.973 119.543 287.57 120.406 286.617 121.68C285.664 122.954 285.234 124.544 285.413 126.125ZM14.5875 173.875C14.4439 173.066 14.1422 172.293 13.6998 171.6C13.2575 170.907 12.683 170.308 12.0091 169.838C11.3353 169.367 10.5754 169.034 9.7728 168.857C8.97016 168.68 8.14052 168.663 7.33125 168.806C6.52198 168.95 5.74892 169.252 5.05622 169.694C4.36352 170.136 3.76473 170.711 3.29406 171.385C2.82338 172.058 2.49002 172.818 2.31303 173.621C2.13603 174.424 2.11887 175.253 2.2625 176.062C2.55258 177.697 3.48004 179.149 4.84085 180.1C6.20166 181.05 7.88435 181.421 9.51875 181.131C11.1531 180.841 12.6054 179.914 13.5559 178.553C14.5065 177.192 14.8776 175.509 14.5875 173.875ZM12.5 150C12.5 148.342 11.8415 146.753 10.6694 145.581C9.49731 144.408 7.9076 143.75 6.25 143.75C4.5924 143.75 3.00269 144.408 1.83058 145.581C0.658481 146.753 0 148.342 0 150C0 151.658 0.658481 153.247 1.83058 154.419C3.00269 155.592 4.5924 156.25 6.25 156.25C7.9076 156.25 9.49731 155.592 10.6694 154.419C11.8415 153.247 12.5 151.658 12.5 150ZM102.975 20.7875C104.533 20.2189 105.802 19.0547 106.501 17.5509C107.201 16.0471 107.275 14.3269 106.706 12.7688C106.138 11.2106 104.973 9.94213 103.47 9.24239C101.966 8.54264 100.246 8.46894 98.6875 9.0375C97.916 9.31902 97.2075 9.74974 96.6024 10.3051C95.9974 10.8604 95.5076 11.5295 95.1611 12.2741C94.8147 13.0187 94.6182 13.8243 94.5831 14.6448C94.5479 15.4653 94.6747 16.2847 94.9563 17.0563C95.2378 17.8278 95.6685 18.5363 96.2238 19.1413C96.7792 19.7464 97.4482 20.2361 98.1929 20.5826C98.9375 20.9291 99.743 21.1255 100.564 21.1607C101.384 21.1958 102.203 21.069 102.975 20.7875ZM22.3875 216.462C21.671 216.87 21.0421 217.415 20.5371 218.066C20.0321 218.718 19.6609 219.463 19.4449 220.258C19.229 221.054 19.1725 221.884 19.2787 222.701C19.385 223.519 19.6518 224.307 20.064 225.021C20.4761 225.735 21.0254 226.36 21.6801 226.861C22.3349 227.361 23.0822 227.727 23.8791 227.938C24.676 228.149 25.5066 228.2 26.3233 228.088C27.1399 227.976 27.9264 227.704 28.6375 227.288C30.0613 226.453 31.0971 225.089 31.519 223.493C31.9408 221.898 31.7144 220.2 30.8892 218.771C30.064 217.341 28.7069 216.296 27.1142 215.864C25.5214 215.432 23.8222 215.647 22.3875 216.462ZM20.8 197.025C20.5336 196.235 20.1118 195.506 19.5593 194.881C19.0068 194.256 18.3349 193.748 17.5831 193.387C16.8314 193.026 16.015 192.819 15.182 192.779C14.349 192.738 13.5163 192.865 12.733 193.151C11.9497 193.437 11.2315 193.877 10.6209 194.445C10.0102 195.013 9.51937 195.697 9.17732 196.458C8.83527 197.219 8.64889 198.04 8.62917 198.874C8.60945 199.707 8.75679 200.537 9.0625 201.312C9.66018 202.829 10.827 204.053 12.314 204.721C13.8009 205.39 15.4904 205.451 17.0219 204.892C18.5533 204.333 19.8055 203.197 20.5114 201.727C21.2172 200.257 21.3208 198.57 20.8 197.025ZM7.35 131.188C8.17727 131.383 9.03568 131.407 9.87272 131.259C10.7098 131.111 11.5079 130.794 12.2182 130.328C12.9285 129.861 13.5361 129.254 14.0039 128.544C14.4717 127.835 14.7898 127.037 14.9388 126.2C15.0878 125.363 15.0645 124.505 14.8704 123.677C14.6763 122.85 14.3154 122.07 13.8098 121.387C13.3042 120.704 12.6646 120.131 11.93 119.703C11.1954 119.276 10.3813 119.002 9.5375 118.9C7.95161 118.708 6.35231 119.13 5.06812 120.08C3.78392 121.031 2.91231 122.436 2.63232 124.009C2.35233 125.582 2.6852 127.202 3.56258 128.537C4.43995 129.872 5.79521 130.821 7.35 131.188ZM12.7875 106.712C13.565 107.019 14.396 107.166 15.2314 107.146C16.0667 107.125 16.8896 106.938 17.6511 106.594C18.4127 106.25 19.0976 105.757 19.6653 105.143C20.2329 104.53 20.6719 103.809 20.9561 103.023C21.2403 102.238 21.3641 101.403 21.3201 100.568C21.276 99.7339 21.0651 98.9167 20.6998 98.1651C20.3344 97.4136 19.8221 96.7429 19.193 96.1928C18.564 95.6428 17.831 95.2244 17.0375 94.9625C15.4925 94.4526 13.8095 94.5653 12.3462 95.2766C10.883 95.9879 9.75478 97.2418 9.20138 98.7718C8.64798 100.302 8.71302 101.987 9.38267 103.47C10.0523 104.953 11.2738 106.116 12.7875 106.712ZM81.25 30.925C81.9665 30.5176 82.5954 29.9725 83.1004 29.3211C83.6054 28.6697 83.9766 27.9248 84.1926 27.1293C84.4085 26.3339 84.465 25.5036 84.3588 24.6862C84.2525 23.8688 83.9857 23.0805 83.5735 22.3667C83.1614 21.6529 82.6121 21.0276 81.9574 20.527C81.3026 20.0263 80.5553 19.6601 79.7584 19.4494C78.9615 19.2387 78.1309 19.1877 77.3142 19.2994C76.4976 19.411 75.7111 19.6831 75 20.1C73.5762 20.9347 72.5404 22.2987 72.1185 23.8943C71.6967 25.4899 71.923 27.1875 72.7483 28.6168C73.5735 30.0461 74.9306 31.091 76.5234 31.5234C78.1161 31.9559 79.8153 31.7407 81.25 30.925ZM52.8125 43.9C52.2848 43.2697 51.8863 42.5415 51.64 41.7572C51.3936 40.9729 51.3042 40.1477 51.3767 39.3288C51.4492 38.5099 51.6824 37.7133 52.0628 36.9845C52.4432 36.2557 52.9634 35.609 53.5938 35.0812C54.2241 34.5535 54.9522 34.1551 55.7365 33.9087C56.5209 33.6624 57.346 33.5729 58.1649 33.6455C58.9838 33.718 59.7804 33.9511 60.5092 34.3315C61.238 34.7119 61.8848 35.2322 62.4125 35.8625C63.4783 37.1355 63.9948 38.7798 63.8483 40.4337C63.7018 42.0875 62.9043 43.6154 61.6312 44.6813C60.3582 45.7471 58.7139 46.2636 57.0601 46.1171C55.4062 45.9705 53.8783 45.173 52.8125 43.9Z" fill="#8000FF"/>
</svg>
